<svg width="23" height="22" viewBox="0 0 23 22" fill="none" xmlns="http://www.w3.org/2000/svg">
<path d="M21.3891 9.42912H21.8104C22.4696 9.42912 23 8.90375 23 8.25072V1.96589C23 1.48962 22.7125 1.05754 22.2664 0.875869C21.8203 0.694199 21.3098 0.792399 20.9678 1.13119L18.9058 3.17376C14.5638 -1.07341 7.57001 -1.05868 3.25279 3.22286C-1.08426 7.51913 -1.08426 14.4815 3.25279 18.7778C7.58984 23.0741 14.6183 23.0741 18.9554 18.7778C19.575 18.164 19.575 17.1673 18.9554 16.5536C18.3358 15.9398 17.3296 15.9398 16.71 16.5536C13.6121 19.6223 8.59108 19.6223 5.49318 16.5536C2.39529 13.4848 2.39529 8.51095 5.49318 5.44219C8.57621 2.38816 13.5576 2.37343 16.6605 5.39309L14.6233 7.41602C14.2813 7.75481 14.1822 8.26054 14.3656 8.70244C14.5489 9.14434 14.9851 9.42912 15.4659 9.42912H21.3891Z" fill="white" fill-opacity="0.7"/>
</svg>
