<svg width="23" height="22" viewBox="0 0 23 22" fill="none" xmlns="http://www.w3.org/2000/svg">
<path d="M1.6109 9.42912H1.18959C0.53036 9.42912 2.66114e-07 8.90375 2.66114e-07 8.25072V1.96589C2.66114e-07 1.48962 0.287484 1.05754 0.733581 0.875869C1.17968 0.694199 1.69021 0.792399 2.03222 1.13119L4.09418 3.17376C8.43618 -1.07341 15.43 -1.05868 19.7472 3.22286C24.0843 7.51913 24.0843 14.4815 19.7472 18.7778C15.4102 23.0741 8.38166 23.0741 4.04461 18.7778C3.42503 18.164 3.42503 17.1673 4.04461 16.5536C4.66419 15.9398 5.67038 15.9398 6.28996 16.5536C9.38786 19.6223 14.4089 19.6223 17.5068 16.5536C20.6047 13.4848 20.6047 8.51095 17.5068 5.44219C14.4238 2.38816 9.44238 2.37343 6.33953 5.39309L8.3767 7.41602C8.71871 7.75481 8.81784 8.26054 8.63445 8.70244C8.45105 9.14434 8.01487 9.42912 7.53408 9.42912H1.6109Z" fill="white" fill-opacity="0.7"/>
</svg>
