<svg width="54" height="39" viewBox="0 0 54 39" fill="none" xmlns="http://www.w3.org/2000/svg">
<path fill-rule="evenodd" clip-rule="evenodd" d="M3 14C1.34326 14 0 15.3431 0 17V36C0 37.6569 1.34326 39 3 39H37C38.6567 39 40 37.6569 40 36V17C40 15.3431 38.6567 14 37 14H3ZM26.5 26.866C27.1665 26.4811 27.1665 25.5189 26.5 25.134L17.5 19.9378C16.8335 19.5529 16 20.0341 16 20.8038V31.1962C16 31.9659 16.8335 32.4471 17.5 32.0622L26.5 26.866Z" fill="white"/>
<path d="M10 7C10 7 7 7 7 9.5C7 12 10 12 10 12H39C40.6567 12 42 13.3431 42 15V29C42 29 42 32 44.5 32C47 32 47 29 47 29V10C47 8.34314 45.6567 7 44 7H10Z" fill="white"/>
<path d="M17 0C17 0 14 0 14 2.5C14 5 17 5 17 5H46C47.6567 5 49 6.34314 49 8V22C49 22 49 25 51.5 25C54 25 54 22 54 22V3C54 1.34314 52.6567 0 51 0H17Z" fill="white"/>
</svg>
